<svg xmlns="http://www.w3.org/2000/svg" viewBox="0 0 1280 720" role="img" aria-label="road background">
  <rect width="1280" height="720" fill="#62c8ff"/>
  <circle cx="150" cy="125" r="36" fill="#fff"/><circle cx="190" cy="112" r="44" fill="#fff"/><circle cx="235" cy="130" r="34" fill="#fff"/>
  <circle cx="980" cy="110" r="32" fill="#fff"/><circle cx="1020" cy="95" r="42" fill="#fff"/><circle cx="1065" cy="116" r="34" fill="#fff"/>
  <path d="M0 330 Q180 245 360 330 T720 330 T1280 330 V420 H0Z" fill="#8edb64"/>
  <path d="M0 385 Q230 335 420 385 T900 385 T1280 385 V455 H0Z" fill="#72c957"/>
  <rect y="355" width="1280" height="365" fill="#b8b8b8"/>
  <g stroke="#8f8f8f" stroke-width="4" opacity=".23">
    <path d="M0 395 H1280"/><path d="M0 690 H1280"/>
  </g>
  <g stroke="#fff" stroke-width="16" stroke-linecap="round" opacity=".95">
    <path d="M80 535 H150"/><path d="M245 535 H315"/><path d="M410 535 H480"/><path d="M575 535 H645"/><path d="M740 535 H810"/><path d="M905 535 H975"/><path d="M1070 535 H1140"/>
  </g>
</svg>
