<svg xmlns="http://www.w3.org/2000/svg" viewBox="0 0 320 230"><path d="M42 145c-8-42 16-62 58-68 10-46 46-65 106-60 58 5 86 27 92 86 22 8 34 24 30 47-4 36-31 45-70 39H88c-30 0-43-13-46-44z" fill="#1976d2" stroke="#3b332f" stroke-width="8" stroke-linejoin="round"/><path d="M108 80c6-30 25-44 62-41v66h-70c1-9 3-17 8-25zM184 40c43 1 63 18 68 65h-68z" fill="#9fe7ff" stroke="#3b332f" stroke-width="5"/><ellipse cx="142" cy="83" rx="20" ry="30" fill="#fff"/><ellipse cx="196" cy="83" rx="20" ry="30" fill="#fff"/><ellipse cx="147" cy="89" rx="11" ry="18" fill="#111"/><ellipse cx="201" cy="89" rx="11" ry="18" fill="#111"/><circle cx="151" cy="78" r="5" fill="#fff"/><circle cx="205" cy="78" r="5" fill="#fff"/><rect x="47" y="128" width="28" height="24" rx="5" fill="#ffe06a" stroke="#8b6d00" stroke-width="4"/><rect x="294" y="140" width="17" height="25" rx="5" fill="#e74b3b"/><circle cx="95" cy="177" r="33" fill="#222" stroke="#111" stroke-width="5"/><circle cx="246" cy="177" r="33" fill="#222" stroke="#111" stroke-width="5"/><circle cx="95" cy="177" r="16" fill="#eee"/><circle cx="246" cy="177" r="16" fill="#eee"/></svg>